<svg width="693" height="103" viewBox="0 0 693 103" fill="none" xmlns="http://www.w3.org/2000/svg">
<path d="M1 102C5.06471 99.9282 6.58897 90.0872 12.1779 90.6051C17.7669 91.1231 20.8154 92.6769 24.8801 89.0513C28.9449 85.4257 34.5338 76.1026 40.1228 76.1026C45.7118 76.1026 56.3816 68.8513 58.9221 72.4769C61.4625 76.1026 73.6566 81.8 80.2618 80.7641C86.8669 79.7282 81.2779 76.1026 97.0287 77.6564C112.779 79.2103 99.5691 80.7641 116.844 80.7641C134.119 80.7641 139.708 93.7128 147.837 89.0513C155.967 84.3897 147.329 64.7077 161.048 62.118C174.766 59.5282 172.226 63.1538 186.452 67.8154C200.679 72.4769 216.429 43.9897 225.575 45.5436C234.721 47.0974 236.245 55.3846 242.85 45.5436C249.455 35.7025 249.455 17.0564 258.093 16.0205C266.73 14.9846 284.005 16.0205 287.054 23.7897C290.102 31.559 289.086 39.8461 297.724 40.882C306.361 41.9179 312.966 33.6307 325.668 35.1846C338.371 36.7384 332.782 40.882 339.895 40.882C347.008 40.882 351.073 30.5231 355.137 31.559C359.202 32.5948 363.267 36.7384 365.299 40.882C367.332 45.0256 367.84 51.241 371.904 51.241C375.969 51.241 375.461 63.1538 379.526 61.082C383.59 59.0102 384.099 61.6 385.623 56.9384C387.147 52.2769 389.179 42.9538 392.228 42.4359C395.276 41.9179 394.26 41.4 398.325 42.4359C402.39 43.4718 404.93 42.9538 405.438 39.8461C405.946 36.7384 405.438 35.1846 408.995 35.1846C412.551 35.1846 414.076 37.2564 419.665 39.8461C425.254 42.4359 446.593 60.0461 453.199 58.4923C459.804 56.9384 464.885 51.241 476.062 51.241C487.24 51.241 488.257 56.4205 496.386 53.8307C504.515 51.241 503.499 48.6513 515.185 45.5436C526.871 42.4359 541.606 39.8462 548.211 45.5436C554.816 51.241 575.14 56.9384 581.237 51.241C587.334 45.5436 592.415 43.9897 596.479 47.6153C600.544 51.241 594.447 55.3846 603.593 56.9384C612.738 58.4923 617.311 56.9384 619.851 51.241C622.392 45.5436 624.932 39.3282 631.029 40.882C637.126 42.4359 649.829 25.8615 654.91 24.8256C659.99 23.7897 673.709 17.5743 673.709 11.359C673.709 6.38666 685.903 2.3812 692 1" stroke="#347AE2" stroke-width="2" stroke-linecap="round" stroke-linejoin="round"/>
</svg>
