<svg width="694" height="103" viewBox="0 0 694 103" fill="none" xmlns="http://www.w3.org/2000/svg">
<path d="M1.4248 102C5.48951 99.9282 7.01378 90.0872 12.6027 90.6051C18.1917 91.1231 21.2402 92.6769 25.305 89.0513C29.3697 85.4257 34.9586 76.1026 40.5476 76.1026C46.1366 76.1026 56.8064 68.8513 59.3469 72.4769C61.8873 76.1026 74.0814 81.8 80.6866 80.7641C87.2917 79.7282 81.7027 76.1026 97.4535 77.6564C113.204 79.2103 99.9939 80.7641 117.269 80.7641C134.544 80.7641 140.133 93.7128 148.262 89.0513C156.392 84.3897 147.754 64.7077 161.473 62.118C175.191 59.5282 172.651 63.1538 186.877 67.8154C201.103 72.4769 216.854 43.9897 226 45.5436C235.145 47.0974 236.67 55.3846 243.275 45.5436C249.88 35.7025 249.88 17.0564 258.517 16.0205C267.155 14.9846 284.43 16.0205 287.478 23.7897C290.527 31.559 289.511 39.8461 298.148 40.882C306.786 41.9179 313.391 33.6307 326.093 35.1846C338.795 36.7384 333.206 40.882 340.32 40.882C347.433 40.882 351.498 30.5231 355.562 31.559C359.627 32.5948 363.692 36.7384 365.724 40.882C367.756 45.0256 368.265 51.241 372.329 51.241C376.394 51.241 375.886 63.1538 379.951 61.082C384.015 59.0102 384.523 61.6 386.048 56.9384C387.572 52.2769 389.604 42.9538 392.653 42.4359C395.701 41.9179 394.685 41.4 398.75 42.4359C402.815 43.4718 405.355 42.9538 405.863 39.8461C406.371 36.7384 405.863 35.1846 409.42 35.1846C412.976 35.1846 414.501 37.2564 420.09 39.8461C425.678 42.4359 447.018 60.0461 453.623 58.4923C460.228 56.9384 465.309 51.241 476.487 51.241C487.665 51.241 488.681 56.4205 496.811 53.8307C504.94 51.241 503.924 48.6513 515.61 45.5436C527.296 42.4359 542.031 39.8462 548.636 45.5436C555.241 51.241 575.565 56.9384 581.662 51.241C587.759 45.5436 592.84 43.9897 596.904 47.6153C600.969 51.241 594.872 55.3846 604.017 56.9384C613.163 58.4923 617.736 56.9384 620.276 51.241C622.817 45.5436 625.357 39.3282 631.454 40.882C637.551 42.4359 650.253 25.8615 655.334 24.8256C660.415 23.7897 674.134 17.5743 674.134 11.359C674.134 6.38666 686.328 2.3812 692.425 1" stroke="#347AE2" stroke-width="2" stroke-linecap="round" stroke-linejoin="round"/>
</svg>
