<svg width="693" height="104" viewBox="0 0 693 104" fill="none" xmlns="http://www.w3.org/2000/svg">
<path d="M1 80.5125C5.39374 80.8588 15.8035 83.0059 22.2927 88.8238C30.4043 96.0961 50.6831 109.602 52.204 99.2129C53.4207 90.9016 59.1326 92.6331 61.8364 94.5378C64.0333 96.2693 68.934 99.2129 70.9619 97.135C73.4967 94.5378 77.5525 74.279 84.65 73.2401C91.7476 72.2012 87.6919 80.5125 92.2546 81.5514C96.8173 82.5903 98.8452 76.3569 102.901 76.3569C106.957 76.3569 112.533 87.7849 119.631 86.7459C126.729 85.707 132.305 86.7459 137.375 84.1487C142.445 81.5514 140.417 76.3569 143.459 73.2401C146.5 70.1234 151.57 68.0456 152.077 63.8899C152.584 59.7343 154.612 48.8258 159.682 48.3063C164.751 47.7868 164.244 51.423 173.37 50.9036C182.495 50.3841 183.509 49.3452 186.551 52.9814C189.593 56.6176 191.114 63.8899 196.183 63.8899C201.253 63.8899 198.211 68.0456 202.774 70.1234C207.337 72.2012 208.858 71.1623 213.927 67.5261C218.997 63.8899 228.123 37.9172 239.783 37.9172C251.443 37.9172 249.415 33.7616 260.062 35.8394C270.708 37.9172 270.708 36.3588 273.243 31.6838C275.778 27.0087 280.34 22.3336 286.424 22.3336C292.508 22.3336 301.126 25.4503 306.703 23.8919C312.28 22.3336 317.856 12.4639 323.94 12.9834C330.023 13.5028 327.489 16.1001 339.149 16.1001C350.809 16.1001 346.754 2.07484 359.935 1.03593C373.116 -0.0029752 384.269 21.8141 394.409 23.8919C404.548 25.9698 412.153 16.1001 420.771 16.1001C429.39 16.1001 437.501 28.0476 448.654 27.5281C459.808 27.0087 457.78 19.7363 466.905 19.7363C476.031 19.7363 477.045 27.5281 486.677 27.5281C496.31 27.5281 497.324 19.7363 502.393 19.7363C507.463 19.7363 514.561 19.2168 518.109 16.1001C521.658 12.9834 526.728 6.23049 530.277 12.9834C533.825 19.7363 537.374 31.1643 543.458 27.5281C549.541 23.8919 555.118 25.9697 558.667 31.6837C562.216 37.3977 566.271 49.3452 572.862 46.7479C579.453 44.1507 585.536 49.3452 593.141 44.1507C600.745 38.9561 607.843 30.6448 614.434 37.3977C621.024 44.1507 623.559 46.7479 637.247 46.7479C650.935 46.7479 654.484 48.3063 662.596 44.1507C670.707 39.995 681.354 37.3977 684.395 42.0728C686.829 45.8129 690.479 48.1331 692 48.8257" stroke="#FF9500" stroke-width="2" stroke-linecap="round" stroke-linejoin="round"/>
</svg>
