<svg width="694" height="104" viewBox="0 0 694 104" fill="none" xmlns="http://www.w3.org/2000/svg">
<path d="M1.4248 80.5125C5.81854 80.8588 16.2283 83.0059 22.7175 88.8238C30.8291 96.0961 51.1079 109.602 52.6288 99.2129C53.8455 90.9016 59.5574 92.6331 62.2612 94.5378C64.4581 96.2693 69.3588 99.2129 71.3867 97.135C73.9215 94.5378 77.9773 74.279 85.0748 73.2401C92.1724 72.2012 88.1167 80.5125 92.6794 81.5514C97.2421 82.5903 99.27 76.3569 103.326 76.3569C107.382 76.3569 112.958 87.7849 120.056 86.7459C127.153 85.707 132.73 86.7459 137.8 84.1487C142.869 81.5514 140.842 76.3569 143.883 73.2401C146.925 70.1234 151.995 68.0456 152.502 63.8899C153.009 59.7343 155.037 48.8258 160.106 48.3063C165.176 47.7868 164.669 51.423 173.795 50.9036C182.92 50.3841 183.934 49.3452 186.976 52.9814C190.018 56.6176 191.539 63.8899 196.608 63.8899C201.678 63.8899 198.636 68.0456 203.199 70.1234C207.762 72.2012 209.282 71.1623 214.352 67.5261C219.422 63.8899 228.547 37.9172 240.208 37.9172C251.868 37.9172 249.84 33.7616 260.486 35.8394C271.133 37.9172 271.133 36.3588 273.668 31.6838C276.203 27.0087 280.765 22.3336 286.849 22.3336C292.933 22.3336 301.551 25.4503 307.128 23.8919C312.704 22.3336 318.281 12.4639 324.365 12.9834C330.448 13.5028 327.913 16.1001 339.574 16.1001C351.234 16.1001 347.178 2.07484 360.36 1.03593C373.541 -0.0029752 384.694 21.8141 394.833 23.8919C404.973 25.9698 412.577 16.1001 421.196 16.1001C429.814 16.1001 437.926 28.0476 449.079 27.5281C460.233 27.0087 458.205 19.7363 467.33 19.7363C476.456 19.7363 477.47 27.5281 487.102 27.5281C496.734 27.5281 497.748 19.7363 502.818 19.7363C507.888 19.7363 514.985 19.2168 518.534 16.1001C522.083 12.9834 527.153 6.23049 530.701 12.9834C534.25 19.7363 537.799 31.1643 543.883 27.5281C549.966 23.8919 555.543 25.9697 559.092 31.6837C562.641 37.3977 566.696 49.3452 573.287 46.7479C579.877 44.1507 585.961 49.3452 593.566 44.1507C601.17 38.9561 608.268 30.6448 614.858 37.3977C621.449 44.1507 623.984 46.7479 637.672 46.7479C651.36 46.7479 654.909 48.3063 663.021 44.1507C671.132 39.995 681.778 37.3977 684.82 42.0728C687.254 45.8129 690.904 48.1331 692.425 48.8257" stroke="#FF9500" stroke-width="2" stroke-linecap="round" stroke-linejoin="round"/>
</svg>
