<svg width="12" height="7" viewBox="0 0 12 7" fill="none" xmlns="http://www.w3.org/2000/svg">
<path d="M-0.0899098 0.812553C-0.0907696 0.664496 -0.0622656 0.517726 -0.00603117 0.380659C0.0502032 0.243592 0.133063 0.118923 0.237794 0.0138034C0.342843 -0.0916411 0.467822 -0.175334 0.605524 -0.232449C0.743226 -0.289564 0.890924 -0.31897 1.0401 -0.31897C1.18927 -0.31897 1.33697 -0.289564 1.47467 -0.232449C1.61238 -0.175334 1.73736 -0.0916411 1.84241 0.0138034L5.56013 3.73755L9.30046 0.160053C9.51218 -0.0494788 9.79858 -0.167088 10.0971 -0.167088C10.3956 -0.167088 10.6821 -0.0494788 10.8938 0.160053C10.9997 0.264637 11.0838 0.389063 11.1411 0.526155C11.1985 0.663246 11.228 0.81029 11.228 0.958804C11.228 1.10732 11.1985 1.25436 11.1411 1.39145C11.0838 1.52854 10.9997 1.65297 10.8938 1.75755L6.37374 6.10005C6.16251 6.30618 5.87852 6.42164 5.58273 6.42164C5.28695 6.42164 5.00296 6.30618 4.79173 6.10005L0.271693 1.60005C0.162158 1.49908 0.0738071 1.37749 0.0117416 1.24233C-0.0503239 1.10716 -0.084873 0.961089 -0.0899098 0.812553V0.812553Z" fill="#0D6511"/>
</svg>
