<svg width="217" height="216" viewBox="0 0 217 216" fill="none" xmlns="http://www.w3.org/2000/svg">
<path d="M93.7662 7.54386C93.2494 4.00256 95.7011 0.692412 99.267 0.388905C119.628 -1.34412 140.114 2.73348 158.316 12.2144C178.438 22.6955 194.749 39.2475 204.933 59.5218C215.117 79.7962 218.658 102.763 215.052 125.163C211.447 147.563 200.878 168.259 184.846 184.313C168.815 200.368 148.134 210.966 125.739 214.603C103.344 218.24 80.3722 214.732 60.0835 204.577C39.7948 194.422 23.2196 178.134 12.7101 158.027C3.20331 139.838 -0.903325 119.359 0.800835 98.9948C1.09929 95.4284 4.40596 92.9721 7.94799 93.4838C11.49 93.9955 13.9233 97.2821 13.654 100.851C12.3213 118.515 15.9505 136.248 24.1958 152.024C33.4442 169.718 48.0304 184.051 65.8845 192.988C83.7385 201.925 103.954 205.012 123.661 201.811C143.369 198.61 161.568 189.284 175.676 175.156C189.784 161.028 199.084 142.816 202.257 123.103C205.43 103.391 202.314 83.1806 193.352 65.3392C184.39 47.4978 170.037 32.932 152.329 23.7087C136.542 15.4858 118.803 11.8817 101.141 13.2394C97.573 13.5138 94.2829 11.0852 93.7662 7.54386Z" fill="#E6EDFF"/>
<path d="M34.7479 142.172C32.1506 143.377 29.053 142.253 28.0062 139.588C22.0292 124.372 20.4791 107.734 23.5931 91.6135C27.0355 73.7922 36.0031 57.5077 49.2232 45.0707C62.4432 32.6337 79.2444 24.676 97.2425 22.3268C115.241 19.9776 133.521 23.3563 149.491 31.9833C165.46 40.6104 178.307 54.0476 186.209 70.3883C194.11 86.7289 196.665 105.143 193.51 123.017C190.355 140.892 181.651 157.319 168.633 169.967C156.857 181.409 142.093 189.233 126.09 192.575C123.287 193.16 120.649 191.186 120.233 188.353C119.817 185.521 121.781 182.905 124.579 182.296C138.427 179.286 151.195 172.455 161.408 162.531C172.864 151.401 180.523 136.945 183.3 121.215C186.076 105.486 183.828 89.2815 176.875 74.9017C169.921 60.5219 158.616 48.6971 144.563 41.1053C130.51 33.5135 114.423 30.5403 98.5844 32.6076C82.7461 34.6749 67.961 41.6776 56.3274 52.6222C44.6937 63.5667 36.8022 77.8972 33.7729 93.5799C31.0721 107.562 32.3582 121.985 37.4313 135.217C38.4562 137.891 37.3452 140.968 34.7479 142.172Z" fill="#E6EDFF"/>
<path d="M209.945 108C213.524 108 216.445 110.904 216.231 114.476C215.018 134.666 208.155 154.158 196.363 170.697C183.314 188.999 164.88 202.774 143.63 210.101C122.38 217.428 99.3736 217.942 77.8176 211.572C56.2616 205.202 37.2302 192.265 23.3765 174.564C9.52283 156.863 1.53716 135.281 0.532694 112.826C-0.471767 90.3711 5.55505 68.1622 17.773 49.2952C29.991 30.4283 47.7912 15.8436 68.6923 7.57425C87.5804 0.101358 108.15 -1.87756 128.04 1.79612C131.559 2.44615 133.676 5.97974 132.816 9.45372C131.956 12.9277 128.445 15.0236 124.921 14.4024C107.656 11.3595 89.8396 13.145 73.4602 19.6253C55.0672 26.9024 39.403 39.7369 28.6512 56.3398C17.8994 72.9427 12.5958 92.4866 13.4797 112.247C14.3637 132.008 21.3911 151 33.5823 166.576C45.7736 182.153 62.5212 193.538 81.4904 199.144C100.46 204.749 120.705 204.297 139.405 197.849C158.105 191.401 174.327 179.279 185.81 163.173C196.036 148.831 202.05 131.965 203.244 114.475C203.488 110.905 206.366 108 209.945 108Z" fill="url(#paint0_linear_239_59)"/>
<path d="M189.641 108C192.504 108 194.841 110.323 194.669 113.181C193.786 127.888 189.153 142.157 181.174 154.611C172.26 168.523 159.545 179.587 144.535 186.492C129.524 193.398 112.849 195.854 96.4847 193.571C80.1208 191.288 64.7546 184.36 52.2079 173.61C39.6613 162.859 30.4602 148.736 25.6955 132.916C20.9307 117.095 20.8022 100.24 25.3251 84.3489C29.848 68.4575 38.8326 54.1962 51.2139 43.2556C62.2975 33.4615 75.6871 26.6963 90.085 23.569C92.8828 22.9613 95.5368 24.9147 95.9757 27.7439C96.4145 30.5731 94.4712 33.2047 91.6785 33.8352C79.2392 36.6439 67.6768 42.544 58.0792 51.0249C47.1837 60.6526 39.2772 73.2026 35.2971 87.187C31.3169 101.171 31.43 116.004 35.623 129.926C39.8159 143.848 47.9129 156.276 58.954 165.736C69.9951 175.197 83.5173 181.293 97.9176 183.303C112.318 185.312 126.992 183.15 140.201 177.073C153.41 170.997 164.6 161.26 172.444 149.017C179.354 138.233 183.412 125.903 184.28 113.18C184.475 110.324 186.778 108 189.641 108Z" fill="url(#paint1_linear_239_59)"/>
<defs>
<linearGradient id="paint0_linear_239_59" x1="119.225" y1="11.34" x2="211.565" y2="105.3" gradientUnits="userSpaceOnUse">
<stop stop-color="#2E9931"/>
<stop offset="1" stop-color="#E6EEFF"/>
</linearGradient>
<linearGradient id="paint1_linear_239_59" x1="43.6249" y1="57.7801" x2="185.645" y2="79.3801" gradientUnits="userSpaceOnUse">
<stop stop-color="#B4E0A0"/>
<stop offset="0.980922" stop-color="#E6EEFF"/>
</linearGradient>
</defs>
</svg>
