<svg width="216" height="216" viewBox="0 0 216 216" fill="none" xmlns="http://www.w3.org/2000/svg">
<path d="M93.3414 7.54386C92.8246 4.00256 95.2763 0.692412 98.8422 0.388905C119.204 -1.34412 139.689 2.73348 157.891 12.2144C178.014 22.6955 194.324 39.2475 204.508 59.5218C214.693 79.7962 218.233 102.763 214.628 125.163C211.022 147.563 200.453 168.259 184.422 184.313C168.39 200.368 147.709 210.966 125.314 214.603C102.919 218.24 79.9474 214.732 59.6587 204.577C39.37 194.422 22.7948 178.134 12.2852 158.027C2.77851 139.838 -1.32813 119.359 0.37603 98.9948C0.674482 95.4284 3.98115 92.9721 7.52318 93.4838C11.0652 93.9955 13.4985 97.2821 13.2292 100.851C11.8965 118.515 15.5257 136.248 23.771 152.024C33.0194 169.718 47.6056 184.051 65.4597 192.988C83.3137 201.925 103.529 205.012 123.236 201.811C142.944 198.61 161.143 189.284 175.251 175.156C189.359 161.028 198.659 142.816 201.832 123.103C205.005 103.391 201.889 83.1806 192.927 65.3392C183.965 47.4978 169.612 32.932 151.904 23.7087C136.117 15.4858 118.379 11.8817 100.716 13.2394C97.1482 13.5138 93.8581 11.0852 93.3414 7.54386Z" fill="#E6EDFF"/>
<path d="M34.3231 142.172C31.7258 143.377 28.6281 142.253 27.5814 139.588C21.6044 124.372 20.0543 107.734 23.1683 91.6135C26.6107 73.7922 35.5783 57.5077 48.7983 45.0707C62.0184 32.6337 78.8196 24.676 96.8177 22.3268C114.816 19.9776 133.097 23.3563 149.066 31.9833C165.035 40.6104 177.882 54.0476 185.784 70.3883C193.685 86.7289 196.24 105.143 193.085 123.017C189.93 140.892 181.226 157.319 168.208 169.967C156.432 181.409 141.668 189.233 125.665 192.575C122.863 193.16 120.224 191.186 119.808 188.353C119.392 185.521 121.356 182.905 124.154 182.296C138.002 179.286 150.77 172.455 160.983 162.531C172.439 151.401 180.099 136.945 182.875 121.215C185.651 105.486 183.403 89.2815 176.45 74.9017C169.497 60.5219 158.191 48.6971 144.138 41.1053C130.085 33.5135 113.998 30.5403 98.1596 32.6076C82.3213 34.6749 67.5362 41.6776 55.9026 52.6222C44.2689 63.5667 36.3774 77.8972 33.3481 93.5799C30.6473 107.562 31.9334 121.985 37.0065 135.217C38.0314 137.891 36.9204 140.968 34.3231 142.172Z" fill="#E6EDFF"/>
<path d="M209.52 108C213.099 108 216.02 110.904 215.806 114.476C214.593 134.666 207.73 154.158 195.938 170.697C182.889 188.999 164.455 202.774 143.205 210.101C121.955 217.428 98.9488 217.942 77.3928 211.572C55.8368 205.202 36.8054 192.265 22.9517 174.564C9.09803 156.863 1.11235 135.281 0.10789 112.826C-0.896572 90.3711 5.13024 68.1622 17.3482 49.2952C29.5662 30.4283 47.3664 15.8436 68.2675 7.57425C87.1556 0.101358 107.725 -1.87756 127.615 1.79612C131.134 2.44615 133.251 5.97974 132.391 9.45372C131.532 12.9277 128.02 15.0236 124.496 14.4024C107.231 11.3595 89.4148 13.145 73.0354 19.6253C54.6424 26.9024 38.9782 39.7369 28.2264 56.3398C17.4746 72.9427 12.171 92.4866 13.0549 112.247C13.9389 132.008 20.9663 151 33.1575 166.576C45.3488 182.153 62.0963 193.538 81.0656 199.144C100.035 204.749 120.281 204.297 138.98 197.849C157.68 191.401 173.902 179.279 185.385 163.173C195.611 148.831 201.625 131.965 202.819 114.475C203.063 110.905 205.941 108 209.52 108Z" fill="url(#paint0_linear_203_95)"/>
<path d="M189.216 108C192.079 108 194.416 110.323 194.245 113.181C193.361 127.888 188.728 142.157 180.749 154.611C171.836 168.523 159.12 179.587 144.11 186.492C129.099 193.398 112.424 195.854 96.0599 193.571C79.696 191.288 64.3298 184.36 51.7831 173.61C39.2365 162.859 30.0354 148.736 25.2706 132.916C20.5059 117.095 20.3774 100.24 24.9003 84.3489C29.4232 68.4575 38.4078 54.1962 50.789 43.2556C61.8727 33.4615 75.2623 26.6963 89.6602 23.569C92.458 22.9613 95.112 24.9147 95.5509 27.7439C95.9897 30.5731 94.0464 33.2047 91.2536 33.8352C78.8144 36.6439 67.252 42.544 57.6544 51.0249C46.7588 60.6526 38.8524 73.2026 34.8722 87.187C30.8921 101.171 31.0052 116.004 35.1982 129.926C39.3911 143.848 47.4881 156.276 58.5292 165.736C69.5703 175.197 83.0925 181.293 97.4928 183.303C111.893 185.312 126.568 183.15 139.777 177.073C152.986 170.997 164.175 161.26 172.019 149.017C178.929 138.233 182.987 125.903 183.855 113.18C184.05 110.324 186.353 108 189.216 108Z" fill="url(#paint1_linear_203_95)"/>
<defs>
<linearGradient id="paint0_linear_203_95" x1="118.8" y1="11.34" x2="211.14" y2="105.3" gradientUnits="userSpaceOnUse">
<stop stop-color="#2E9931"/>
<stop offset="1" stop-color="#E6EEFF"/>
</linearGradient>
<linearGradient id="paint1_linear_203_95" x1="43.2001" y1="57.7801" x2="185.22" y2="79.3801" gradientUnits="userSpaceOnUse">
<stop stop-color="#B4E0A0"/>
<stop offset="0.980922" stop-color="#E6EEFF"/>
</linearGradient>
</defs>
</svg>
