<svg width="24" height="22" viewBox="0 0 24 22" fill="none" xmlns="http://www.w3.org/2000/svg">
<path d="M12.2582 14C13.3677 14 14.2671 13.1046 14.2671 12C14.2671 10.8954 13.3677 10 12.2582 10C11.1487 10 10.2493 10.8954 10.2493 12C10.2493 13.1046 11.1487 14 12.2582 14Z" stroke="white" stroke-width="2.5" stroke-linecap="round" stroke-linejoin="round"/>
<path d="M14.2671 10L16.276 8" stroke="white" stroke-width="2.5" stroke-linecap="round" stroke-linejoin="round"/>
<path d="M6.00822 20C4.37671 18.6966 3.18896 16.9153 2.60958 14.903C2.03019 12.8908 2.08787 10.7472 2.7746 8.76939C3.46134 6.79156 4.74314 5.07742 6.44235 3.86451C8.14157 2.6516 10.1741 2 12.2581 2C14.3422 2 16.3747 2.6516 18.0739 3.86451C19.7732 5.07742 21.0549 6.79156 21.7417 8.76939C22.4284 10.7472 22.4861 12.8908 21.9067 14.903C21.3273 16.9153 20.1396 18.6966 18.5081 20H6.00822Z" stroke="white" stroke-width="2.5" stroke-linecap="round" stroke-linejoin="round"/>
</svg>
