<svg width="24" height="22" viewBox="0 0 24 22" fill="none" xmlns="http://www.w3.org/2000/svg">
<path d="M12 14C13.1046 14 14 13.1046 14 12C14 10.8954 13.1046 10 12 10C10.8954 10 10 10.8954 10 12C10 13.1046 10.8954 14 12 14Z" stroke="white" stroke-width="2.5" stroke-linecap="round" stroke-linejoin="round"/>
<path d="M14 10L16 8" stroke="white" stroke-width="2.5" stroke-linecap="round" stroke-linejoin="round"/>
<path d="M5.77778 20C4.1535 18.6966 2.97101 16.9153 2.3942 14.903C1.81738 12.8908 1.8748 10.7472 2.55849 8.76939C3.24219 6.79156 4.5183 5.07742 6.20998 3.86451C7.90167 2.6516 9.92515 2 12 2C14.0749 2 16.0983 2.6516 17.79 3.86451C19.4817 5.07742 20.7578 6.79156 21.4415 8.76939C22.1252 10.7472 22.1826 12.8908 21.6058 14.903C21.029 16.9153 19.8465 18.6966 18.2222 20H5.77778Z" stroke="white" stroke-width="2.5" stroke-linecap="round" stroke-linejoin="round"/>
</svg>
