<svg width="29" height="27" viewBox="0 0 29 27" fill="none" xmlns="http://www.w3.org/2000/svg">
<g clip-path="url(#clip0_217_41)">
<path d="M0.8847 0.812553C0.88384 0.664496 0.912344 0.517726 0.968578 0.380659C1.02481 0.243592 1.10767 0.118923 1.2124 0.0138034C1.31745 -0.0916411 1.44243 -0.175334 1.58013 -0.232449C1.71784 -0.289564 1.86553 -0.31897 2.01471 -0.31897C2.16388 -0.31897 2.31158 -0.289564 2.44928 -0.232449C2.58699 -0.175334 2.71197 -0.0916411 2.81702 0.0138034L6.53474 3.73755L10.2751 0.160053C10.4868 -0.0494788 10.7732 -0.167088 11.0717 -0.167088C11.3703 -0.167088 11.6567 -0.0494788 11.8684 0.160053C11.9743 0.264637 12.0584 0.389063 12.1157 0.526155C12.1731 0.663246 12.2026 0.81029 12.2026 0.958804C12.2026 1.10732 12.1731 1.25436 12.1157 1.39145C12.0584 1.52854 11.9743 1.65297 11.8684 1.75755L7.34835 6.10005C7.13712 6.30618 6.85313 6.42164 6.55734 6.42164C6.26156 6.42164 5.97757 6.30618 5.76634 6.10005L1.2463 1.60005C1.13677 1.49908 1.04842 1.37749 0.986351 1.24233C0.924285 1.10716 0.889736 0.961089 0.8847 0.812553V0.812553Z" fill="#0D6511"/>
</g>
<defs>
<clipPath id="clip0_217_41">
<rect width="27" height="27.1202" fill="white" transform="matrix(0 1 -1 0 28.0947 0)"/>
</clipPath>
</defs>
</svg>
