<svg width="27" height="27" viewBox="0 0 27 27" fill="none" xmlns="http://www.w3.org/2000/svg">
<path d="M7.8748 11.8126C7.87395 11.6645 7.90232 11.5177 7.95831 11.3807C8.01429 11.2436 8.09679 11.1189 8.20105 11.0138C8.30564 10.9084 8.43006 10.8247 8.56715 10.7676C8.70425 10.7104 8.85129 10.681 8.9998 10.681C9.14832 10.681 9.29536 10.7104 9.43245 10.7676C9.56954 10.8247 9.69397 10.9084 9.79855 11.0138L13.4998 14.7376L17.2236 11.1601C17.4343 10.9505 17.7195 10.8329 18.0167 10.8329C18.3139 10.8329 18.599 10.9505 18.8098 11.1601C18.9152 11.2646 18.9989 11.3891 19.0561 11.5262C19.1132 11.6632 19.1426 11.8103 19.1426 11.9588C19.1426 12.1073 19.1132 12.2544 19.0561 12.3915C18.9989 12.5285 18.9152 12.653 18.8098 12.7576L14.3098 17.1001C14.0995 17.3062 13.8168 17.4216 13.5223 17.4216C13.2278 17.4216 12.9451 17.3062 12.7348 17.1001L8.2348 12.6001C8.12575 12.4991 8.03779 12.3775 7.976 12.2423C7.91421 12.1072 7.87982 11.9611 7.8748 11.8126Z" fill="#0D6511"/>
</svg>
