<svg width="50" height="50" viewBox="0 0 50 50" fill="none" xmlns="http://www.w3.org/2000/svg">
<circle cx="25" cy="25" r="25" fill="#B4E0A0"/>
<path d="M32.5005 26.8802H24.5106L24.7554 26.628L26.8451 24.4749C27.6891 24.9128 28.619 25.1463 29.5639 25.1575C30.515 25.1601 31.4483 24.8919 32.2609 24.3826C34.7318 22.8413 36.0558 19.2735 35.8026 14.8385C35.7907 14.6285 35.7044 14.4302 35.56 14.2814C35.4156 14.1327 35.2232 14.0437 35.0193 14.0314C30.715 13.7717 27.2524 15.1348 25.7565 17.6807C24.7815 19.339 24.7565 21.3418 25.6659 23.262L24.1669 24.8065L22.8949 23.496C23.52 22.0738 23.4752 20.598 22.7501 19.3658C21.6178 17.4349 19.0219 16.4056 15.8051 16.5999C15.6016 16.6124 15.4096 16.7013 15.2654 16.8499C15.1213 16.9984 15.0349 17.1962 15.0228 17.4059C14.8332 20.7193 15.8333 23.394 17.7083 24.5618C18.3356 24.9565 19.0567 25.1645 19.7917 25.1629C20.4585 25.1561 21.1162 25.0027 21.7209 24.7131L22.9877 26.0215L22.1543 26.8802H17.5C17.279 26.8802 17.067 26.9707 16.9107 27.1317C16.7544 27.2927 16.6666 27.5111 16.6666 27.7389C16.6666 27.9666 16.7544 28.185 16.9107 28.346C17.067 28.507 17.279 28.5975 17.5 28.5975H18.499L19.8751 34.9806C19.9557 35.3629 20.1613 35.705 20.4575 35.9499C20.7537 36.1947 21.1225 36.3273 21.5022 36.3255H28.4993C28.879 36.3273 29.2478 36.1947 29.544 35.9499C29.8401 35.705 30.0458 35.3629 30.1264 34.9806L31.5025 28.5975H32.5005C32.7215 28.5975 32.9334 28.507 33.0897 28.346C33.246 28.185 33.3338 27.9666 33.3338 27.7389C33.3338 27.5111 33.246 27.2927 33.0897 27.1317C32.9334 26.9707 32.7215 26.8802 32.5005 26.8802ZM27.1878 18.5705C28.2774 16.7179 30.8587 15.6725 34.1672 15.7187C34.2099 19.1329 33.1973 21.7916 31.3994 22.91C30.2004 23.6613 28.7535 23.6119 27.3076 22.7833C26.5023 21.2989 26.4586 19.8059 27.1878 18.5705ZM21.2616 23.028C20.3032 23.5572 19.3542 23.5819 18.5709 23.0924C17.3729 22.3443 16.6822 20.5808 16.6666 18.2936C18.8865 18.3097 20.599 19.0213 21.3241 20.2556C21.7991 21.0628 21.771 22.0406 21.2616 23.028ZM28.4993 34.6081H21.5022L20.2084 28.5975H29.792L28.4993 34.6081Z" fill="#1E1E1E"/>
</svg>
