<svg width="51" height="50" viewBox="0 0 51 50" fill="none" xmlns="http://www.w3.org/2000/svg">
<ellipse cx="25.6201" cy="25" rx="25.1113" ry="25" fill="#B4E0A0"/>
<path d="M32.7994 26.2264H24.9359L25.1768 25.9869L27.2335 23.9431C28.0641 24.3589 28.9793 24.5805 29.9093 24.5911C30.8454 24.5936 31.7639 24.339 32.5636 23.8555C34.9954 22.3925 36.2985 19.0058 36.0494 14.796C36.0377 14.5966 35.9527 14.4084 35.8105 14.2672C35.6684 14.1259 35.4791 14.0415 35.2784 14.0298C31.0422 13.7833 27.6343 15.0772 26.1621 17.4939C25.2025 19.068 25.1779 20.9691 26.0729 22.7919L24.5976 24.258L23.3458 23.014C23.9609 21.664 23.9168 20.2631 23.2033 19.0935C22.0889 17.2606 19.534 16.2835 16.3681 16.4679C16.1678 16.4798 15.9788 16.5642 15.8369 16.7052C15.695 16.8462 15.6101 17.034 15.5981 17.2331C15.4116 20.3782 16.3958 22.9172 18.2412 24.0257C18.8586 24.4003 19.5683 24.5978 20.2916 24.5962C20.9479 24.5898 21.5952 24.4442 22.1904 24.1693L23.437 25.4113L22.6169 26.2264H18.0361C17.8186 26.2264 17.61 26.3122 17.4562 26.4651C17.3024 26.618 17.216 26.8253 17.216 27.0414C17.216 27.2576 17.3024 27.4649 17.4562 27.6178C17.61 27.7706 17.8186 27.8565 18.0361 27.8565H19.0193L20.3737 33.9156C20.453 34.2785 20.6554 34.6033 20.9469 34.8356C21.2384 35.068 21.6014 35.1939 21.9751 35.1922H28.8615C29.2352 35.1939 29.5982 35.068 29.8897 34.8356C30.1812 34.6033 30.3835 34.2785 30.4629 33.9156L31.8172 27.8565H32.7994C33.0169 27.8565 33.2256 27.7706 33.3794 27.6178C33.5332 27.4649 33.6196 27.2576 33.6196 27.0414C33.6196 26.8253 33.5332 26.618 33.3794 26.4651C33.2256 26.3122 33.0169 26.2264 32.7994 26.2264ZM27.5707 18.3385C28.6431 16.58 31.1837 15.5876 34.4398 15.6314C34.4818 18.8724 33.4853 21.396 31.7157 22.4577C30.5357 23.1709 29.1117 23.124 27.6887 22.3375C26.8962 20.9284 26.8531 19.5112 27.5707 18.3385ZM21.7382 22.5697C20.795 23.072 19.861 23.0955 19.0901 22.6309C17.9111 21.9207 17.2313 20.2468 17.216 18.0756C19.4007 18.0909 21.0862 18.7664 21.7997 19.9381C22.2672 20.7042 22.2396 21.6324 21.7382 22.5697ZM28.8615 33.562H21.9751L20.7017 27.8565H30.1338L28.8615 33.562Z" fill="#1E1E1E"/>
</svg>
