<svg width="23" height="21" viewBox="0 0 23 21" fill="none" xmlns="http://www.w3.org/2000/svg">
<path d="M7.17071 14.1387C6.95719 14.3603 6.66759 14.4848 6.36562 14.4848C6.06365 14.4848 5.77405 14.3603 5.56053 14.1387C5.34701 13.9171 5.22705 13.6165 5.22705 13.303C5.22705 12.9896 5.34701 12.689 5.56053 12.4674C5.77405 12.2457 6.06365 12.1212 6.36562 12.1212L8.64276 9.75758C8.64276 9.44414 8.76271 9.14354 8.97624 8.9219C9.18976 8.70027 9.47936 8.57576 9.78133 8.57576C10.0833 8.57576 10.3729 8.70027 10.5864 8.9219C10.7999 9.14354 10.9199 9.44414 10.9199 9.75758L12.233 11.1442H12.3545L15.0946 8.3C15.0909 8.2607 15.0909 8.22112 15.0946 8.18182C15.0946 7.94808 15.1614 7.71958 15.2865 7.52524C15.4116 7.33089 15.5895 7.17941 15.7975 7.08996C16.0056 7.00051 16.2345 6.97711 16.4553 7.02271C16.6762 7.06831 16.8791 7.18087 17.0383 7.34615C17.1975 7.51143 17.306 7.72201 17.3499 7.95126C17.3938 8.18051 17.3713 8.41813 17.2851 8.63408C17.1989 8.85003 17.053 9.0346 16.8658 9.16446C16.6785 9.29432 16.4584 9.36364 16.2332 9.36364L13.4703 12.2552V12.3182C13.4703 12.6316 13.3503 12.9322 13.1368 13.1539C12.9233 13.3755 12.6337 13.5 12.3317 13.5C12.0298 13.5 11.7402 13.3755 11.5266 13.1539C11.3131 12.9322 11.1932 12.6316 11.1932 12.3182V12.2552L9.97109 10.9867H9.79651H9.62193L7.50419 13.1848C7.50789 13.2241 7.50789 13.2637 7.50419 13.303C7.50419 13.6165 7.38423 13.9171 7.17071 14.1387Z" fill="white" stroke="white"/>
<path d="M20.238 2H3.27388C2.68832 2 2.21362 2.63426 2.21362 3.41667V17.5833C2.21362 18.3657 2.68832 19 3.27388 19H20.238C20.8235 19 21.2982 18.3657 21.2982 17.5833V3.41667C21.2982 2.63426 20.8235 2 20.238 2Z" stroke="white" stroke-width="2.5" stroke-linecap="round" stroke-linejoin="round"/>
</svg>
