<svg width="24" height="24" viewBox="0 0 24 24" fill="none" xmlns="http://www.w3.org/2000/svg">
<path fill-rule="evenodd" clip-rule="evenodd" d="M3.8499 11.9999C3.8499 7.49878 7.49878 3.8499 11.9999 3.8499C16.501 3.8499 20.1499 7.49878 20.1499 11.9999C20.1499 16.501 16.501 20.1499 11.9999 20.1499C7.49878 20.1499 3.8499 16.501 3.8499 11.9999ZM11.9999 2.1499C6.5599 2.1499 2.1499 6.5599 2.1499 11.9999C2.1499 17.4399 6.5599 21.8499 11.9999 21.8499C17.4399 21.8499 21.8499 17.4399 21.8499 11.9999C21.8499 6.5599 17.4399 2.1499 11.9999 2.1499ZM11.1499 11.9999C11.1499 12.4694 11.5305 12.8499 11.9999 12.8499C12.4693 12.8499 12.8499 12.4694 12.8499 11.9999V7.99991C12.8499 7.53047 12.4693 7.14991 11.9999 7.14991C11.5305 7.14991 11.1499 7.53047 11.1499 7.99991V11.9999ZM11.9999 14.3499C11.3648 14.3499 10.8499 14.8648 10.8499 15.4999C10.8499 16.135 11.3648 16.6499 11.9999 16.6499C12.635 16.6499 13.1499 16.135 13.1499 15.4999C13.1499 14.8648 12.635 14.3499 11.9999 14.3499Z" fill="white"/>
</svg>
