<svg width="25" height="24" viewBox="0 0 25 24" fill="none" xmlns="http://www.w3.org/2000/svg">
<path fill-rule="evenodd" clip-rule="evenodd" d="M4.07695 11.9999C4.07695 7.49878 7.72583 3.8499 12.227 3.8499C16.7281 3.8499 20.377 7.49878 20.377 11.9999C20.377 16.501 16.7281 20.1499 12.227 20.1499C7.72583 20.1499 4.07695 16.501 4.07695 11.9999ZM12.227 2.1499C6.78695 2.1499 2.37695 6.5599 2.37695 11.9999C2.37695 17.4399 6.78695 21.8499 12.227 21.8499C17.667 21.8499 22.077 17.4399 22.077 11.9999C22.077 6.5599 17.667 2.1499 12.227 2.1499ZM11.377 11.9999C11.377 12.4694 11.7575 12.8499 12.227 12.8499C12.6964 12.8499 13.077 12.4694 13.077 11.9999V7.99991C13.077 7.53047 12.6964 7.14991 12.227 7.14991C11.7575 7.14991 11.377 7.53047 11.377 7.99991V11.9999ZM12.227 14.3499C11.5918 14.3499 11.077 14.8648 11.077 15.4999C11.077 16.135 11.5918 16.6499 12.227 16.6499C12.8621 16.6499 13.377 16.135 13.377 15.4999C13.377 14.8648 12.8621 14.3499 12.227 14.3499Z" fill="white"/>
</svg>
