<svg width="53" height="65" viewBox="0 0 53 65" fill="none" xmlns="http://www.w3.org/2000/svg">
<path d="M20.1911 49.3948H23.5393V33.9579H30.0595V49.3948H33.4077C33.838 45.6837 35.8364 42.6211 39.0803 39.2775C39.4487 38.9008 41.7927 36.6007 42.0698 36.2734C44.3724 33.5493 45.8156 30.2646 46.2334 26.7976C46.6511 23.3307 46.0263 19.8225 44.4309 16.6771C42.8356 13.5317 40.3345 10.877 37.2158 9.01873C34.0971 7.16043 30.4876 6.17412 26.8029 6.17338C23.1182 6.17263 19.5083 7.15749 16.3887 9.01452C13.2692 10.8716 10.7669 13.5253 9.17017 16.67C7.5734 19.8148 6.94703 23.3227 7.36319 26.7898C7.77935 30.2569 9.22113 33.5421 11.5225 36.2673C11.8028 36.5976 14.1534 38.9008 14.5153 39.2744C17.7623 42.6211 19.7608 45.6837 20.1911 49.3948V49.3948ZM20.2792 55.5695V58.6568H33.3196V55.5695H20.2792ZM6.43669 40.1327C3.36628 36.4997 1.44202 32.1193 0.885566 27.496C0.329118 22.8726 1.16312 18.1945 3.2915 14.0004C5.41988 9.80633 8.75605 6.26695 12.9157 3.78999C17.0754 1.31303 21.8893 -0.000744802 26.8029 3.16774e-07C31.7166 0.000745436 36.53 1.31598 40.6889 3.7942C44.8477 6.27243 48.1826 9.81281 50.3096 14.0075C52.4366 18.2023 53.269 22.8807 52.711 27.5038C52.153 32.127 50.2272 36.5068 47.1556 40.1388C45.1343 42.5223 39.8399 46.3074 39.8399 50.9384V58.6568C39.8399 60.2945 39.1529 61.8651 37.9301 63.023C36.7074 64.181 35.0489 64.8316 33.3196 64.8316H20.2792C18.5499 64.8316 16.8914 64.181 15.6687 63.023C14.4459 61.8651 13.7589 60.2945 13.7589 58.6568V50.9384C13.7589 46.3074 8.46122 42.5223 6.43669 40.1327Z" fill="#0D986A"/>
</svg>
