<svg width="24" height="24" viewBox="0 0 24 24" fill="none" xmlns="http://www.w3.org/2000/svg">
<path fill-rule="evenodd" clip-rule="evenodd" d="M3.8499 11.9999C3.8499 9.99105 3.85016 8.45408 3.91129 7.26218C3.97321 6.05464 4.09496 5.30094 4.28911 4.81558C4.45852 4.39205 4.66909 4.20029 4.99548 4.07336C5.3962 3.91752 6.00375 3.8499 6.9999 3.8499C7.97371 3.8499 8.65314 3.91163 9.12801 4.01716C9.60137 4.12235 9.80439 4.25647 9.89886 4.35094C9.98311 4.43519 10.0545 4.56035 10.099 4.82714C10.1475 5.11829 10.1499 5.47834 10.1499 5.9999C10.1499 6.46934 10.5305 6.8499 10.9999 6.8499C11.4693 6.8499 11.8499 6.46934 11.8499 5.9999L11.8499 5.95733V5.95731C11.85 5.49102 11.85 4.99293 11.7758 4.54766C11.6953 4.06445 11.5167 3.56462 11.1009 3.14886C10.6954 2.74333 10.1484 2.50245 9.49679 2.35764C8.84666 2.21317 8.0261 2.1499 6.9999 2.1499C5.99606 2.1499 5.10361 2.20728 4.37932 2.48895C3.58072 2.79952 3.04128 3.35775 2.7107 4.18422C2.40484 4.94886 2.27659 5.94517 2.21352 7.17512C2.1499 8.41562 2.1499 9.99574 2.1499 11.9754V11.9756V11.9999V12.0242V12.0244C2.1499 14.0041 2.1499 15.5842 2.21352 16.8247C2.27659 18.0546 2.40484 19.0509 2.7107 19.8156C3.04128 20.642 3.58072 21.2003 4.37932 21.5109C5.10361 21.7925 5.99606 21.8499 6.9999 21.8499C8.0261 21.8499 8.84666 21.7866 9.49679 21.6422C10.1484 21.4974 10.6954 21.2565 11.1009 20.8509C11.5167 20.4352 11.6953 19.9354 11.7758 19.4521C11.85 19.0069 11.85 18.5088 11.8499 18.0425V18.0425L11.8499 17.9999C11.8499 17.5305 11.4693 17.1499 10.9999 17.1499C10.5305 17.1499 10.1499 17.5305 10.1499 17.9999C10.1499 18.5215 10.1475 18.8815 10.099 19.1727C10.0545 19.4395 9.98311 19.5646 9.89886 19.6489C9.80439 19.7433 9.60137 19.8775 9.12801 19.9826C8.65314 20.0882 7.97371 20.1499 6.9999 20.1499C6.00375 20.1499 5.3962 20.0823 4.99548 19.9264C4.66909 19.7995 4.45852 19.6078 4.28911 19.1842C4.09496 18.6989 3.97321 17.9452 3.91129 16.7376C3.85016 15.5457 3.8499 14.0088 3.8499 11.9999ZM17.6009 7.39886C17.269 7.06692 16.7308 7.06692 16.3989 7.39886C16.0669 7.73081 16.0669 8.269 16.3989 8.60094L18.9478 11.1499H10.9999C10.5305 11.1499 10.1499 11.5305 10.1499 11.9999C10.1499 12.4693 10.5305 12.8499 10.9999 12.8499H18.9478L16.3989 15.3989C16.0669 15.7308 16.0669 16.269 16.3989 16.6009C16.7308 16.9329 17.269 16.9329 17.6009 16.6009L21.6009 12.6009C21.9329 12.269 21.9329 11.7308 21.6009 11.3989L17.6009 7.39886Z" fill="white"/>
</svg>
