<svg width="25" height="24" viewBox="0 0 25 24" fill="none" xmlns="http://www.w3.org/2000/svg">
<path fill-rule="evenodd" clip-rule="evenodd" d="M4.09478 11.9999C4.09478 9.99105 4.09504 8.45408 4.15616 7.26218C4.21809 6.05464 4.33984 5.30094 4.53398 4.81558C4.70339 4.39205 4.91396 4.20029 5.24035 4.07336C5.64107 3.91752 6.24862 3.8499 7.24478 3.8499C8.21858 3.8499 8.89801 3.91163 9.37288 4.01716C9.84624 4.12235 10.0493 4.25647 10.1437 4.35094C10.228 4.43519 10.2994 4.56035 10.3438 4.82714C10.3924 5.11829 10.3948 5.47834 10.3948 5.9999C10.3948 6.46934 10.7753 6.8499 11.2448 6.8499C11.7142 6.8499 12.0948 6.46934 12.0948 5.9999L12.0948 5.95733V5.95731C12.0948 5.49102 12.0949 4.99293 12.0207 4.54766C11.9402 4.06445 11.7616 3.56462 11.3458 3.14886C10.9403 2.74333 10.3933 2.50245 9.74167 2.35764C9.09154 2.21317 8.27097 2.1499 7.24478 2.1499C6.24093 2.1499 5.34848 2.20728 4.6242 2.48895C3.82559 2.79952 3.28616 3.35775 2.95557 4.18422C2.64971 4.94886 2.52147 5.94517 2.45839 7.17512C2.39478 8.41562 2.39478 9.99574 2.39478 11.9754V11.9756V11.9999V12.0242V12.0244C2.39478 14.0041 2.39478 15.5842 2.45839 16.8247C2.52147 18.0546 2.64971 19.0509 2.95557 19.8156C3.28616 20.642 3.82559 21.2003 4.6242 21.5109C5.34848 21.7925 6.24093 21.8499 7.24478 21.8499C8.27097 21.8499 9.09154 21.7866 9.74167 21.6422C10.3933 21.4974 10.9403 21.2565 11.3458 20.8509C11.7616 20.4352 11.9402 19.9354 12.0207 19.4521C12.0949 19.0069 12.0948 18.5088 12.0948 18.0425V18.0425L12.0948 17.9999C12.0948 17.5305 11.7142 17.1499 11.2448 17.1499C10.7753 17.1499 10.3948 17.5305 10.3948 17.9999C10.3948 18.5215 10.3924 18.8815 10.3438 19.1727C10.2994 19.4395 10.228 19.5646 10.1437 19.6489C10.0493 19.7433 9.84624 19.8775 9.37288 19.9826C8.89801 20.0882 8.21858 20.1499 7.24478 20.1499C6.24862 20.1499 5.64107 20.0823 5.24035 19.9264C4.91396 19.7995 4.70339 19.6078 4.53398 19.1842C4.33984 18.6989 4.21809 17.9452 4.15616 16.7376C4.09504 15.5457 4.09478 14.0088 4.09478 11.9999ZM17.8458 7.39886C17.5139 7.06692 16.9757 7.06692 16.6437 7.39886C16.3118 7.73081 16.3118 8.269 16.6437 8.60094L19.1927 11.1499H11.2448C10.7753 11.1499 10.3948 11.5305 10.3948 11.9999C10.3948 12.4693 10.7753 12.8499 11.2448 12.8499H19.1927L16.6437 15.3989C16.3118 15.7308 16.3118 16.269 16.6437 16.6009C16.9757 16.9329 17.5139 16.9329 17.8458 16.6009L21.8458 12.6009C22.1778 12.269 22.1778 11.7308 21.8458 11.3989L17.8458 7.39886Z" fill="white"/>
</svg>
