<svg width="25" height="24" viewBox="0 0 25 24" fill="none" xmlns="http://www.w3.org/2000/svg">
<path d="M6.4248 10C5.89437 10 5.38566 10.2107 5.01059 10.5858C4.63552 10.9609 4.4248 11.4696 4.4248 12C4.4248 12.5304 4.63552 13.0391 5.01059 13.4142C5.38566 13.7893 5.89437 14 6.4248 14C6.95524 14 7.46395 13.7893 7.83902 13.4142C8.21409 13.0391 8.4248 12.5304 8.4248 12C8.4248 11.4696 8.21409 10.9609 7.83902 10.5858C7.46395 10.2107 6.95524 10 6.4248 10ZM12.4248 10C11.8944 10 11.3857 10.2107 11.0106 10.5858C10.6355 10.9609 10.4248 11.4696 10.4248 12C10.4248 12.5304 10.6355 13.0391 11.0106 13.4142C11.3857 13.7893 11.8944 14 12.4248 14C12.9552 14 13.4639 13.7893 13.839 13.4142C14.2141 13.0391 14.4248 12.5304 14.4248 12C14.4248 11.4696 14.2141 10.9609 13.839 10.5858C13.4639 10.2107 12.9552 10 12.4248 10ZM18.4248 10C17.8944 10 17.3857 10.2107 17.0106 10.5858C16.6355 10.9609 16.4248 11.4696 16.4248 12C16.4248 12.5304 16.6355 13.0391 17.0106 13.4142C17.3857 13.7893 17.8944 14 18.4248 14C18.9552 14 19.4639 13.7893 19.839 13.4142C20.2141 13.0391 20.4248 12.5304 20.4248 12C20.4248 11.4696 20.2141 10.9609 19.839 10.5858C19.4639 10.2107 18.9552 10 18.4248 10Z" fill="black"/>
</svg>
