<svg width="53" height="69" viewBox="0 0 53 69" fill="none" xmlns="http://www.w3.org/2000/svg">
<path d="M19.7862 52.0362H23.1882V35.7739H29.8132V52.0362H33.2151C33.6523 48.1267 35.6829 44.9003 38.9788 41.3779C39.3532 40.9811 41.7348 38.558 42.0164 38.2132C44.356 35.3433 45.8224 31.883 46.2469 28.2307C46.6713 24.5783 46.0365 20.8826 44.4155 17.569C42.7945 14.2554 40.2533 11.4587 37.0844 9.50102C33.9156 7.54335 30.2481 6.50429 26.5042 6.5035C22.7604 6.50272 19.0924 7.54024 15.9227 9.49658C12.7531 11.4529 10.2106 14.2485 8.5882 17.5615C6.96577 20.8744 6.32933 24.5699 6.75218 28.2224C7.17503 31.8749 8.63997 35.3358 10.9783 38.2067C11.2632 38.5547 13.6515 40.9811 14.0192 41.3746C17.3184 44.9003 19.349 48.1267 19.7862 52.0362V52.0362ZM19.8757 58.5411V61.7936H33.1257V58.5411H19.8757ZM5.8108 42.2788C2.69106 38.4516 0.735878 33.8369 0.170489 28.9663C-0.3949 24.0958 0.452502 19.1674 2.61508 14.7491C4.77765 10.3307 8.16742 6.60209 12.3939 3.99267C16.6204 1.38325 21.5117 -0.000784631 26.5042 3.33714e-07C31.4968 0.000785299 36.3876 1.38636 40.6133 3.9971C44.8389 6.60785 48.2275 10.3376 50.3886 14.7566C52.5497 19.1756 53.3955 24.1042 52.8285 28.9746C52.2616 33.845 50.3049 38.4591 47.1839 42.2853C45.1301 44.7962 39.7507 48.7837 39.7507 53.6624V61.7936C39.7507 63.5188 39.0527 65.1733 37.8102 66.3933C36.5678 67.6132 34.8827 68.2985 33.1257 68.2985H19.8757C18.1186 68.2985 16.4335 67.6132 15.1911 66.3933C13.9487 65.1733 13.2507 63.5188 13.2507 61.7936V53.6624C13.2507 48.7837 7.86786 44.7962 5.8108 42.2788Z" fill="#0D986A"/>
</svg>
